<svg width="80" height="39" viewBox="0 0 80 39" fill="none" xmlns="http://www.w3.org/2000/svg">
<path d="M6.97599 2.518C8.74713 2.518 10.2949 2.86962 11.6192 3.57287C12.9436 4.27612 13.9648 5.26706 14.6828 6.54569C15.4168 7.80835 15.7838 9.27078 15.7838 10.933C15.7838 12.5793 15.4168 14.0417 14.6828 15.3203C13.9648 16.599 12.9356 17.5899 11.5953 18.2931C10.2709 18.9964 8.73117 19.348 6.97599 19.348H0.681276V2.518H6.97599ZM6.71272 15.7998C8.26047 15.7998 9.46516 15.3763 10.3268 14.5292C11.1884 13.6821 11.6192 12.4834 11.6192 10.933C11.6192 9.38266 11.1884 8.17595 10.3268 7.31288C9.46516 6.4498 8.26047 6.01826 6.71272 6.01826H4.77404V15.7998H6.71272Z" fill="#7868E6"/>
<path d="M20.1294 4.57979C19.4114 4.57979 18.821 4.37202 18.3582 3.95646C17.9115 3.52492 17.6881 2.99748 17.6881 2.37415C17.6881 1.73483 17.9115 1.2074 18.3582 0.79184C18.821 0.360301 19.4114 0.144531 20.1294 0.144531C20.8315 0.144531 21.4059 0.360301 21.8526 0.79184C22.3154 1.2074 22.5467 1.73483 22.5467 2.37415C22.5467 2.99748 22.3154 3.52492 21.8526 3.95646C21.4059 4.37202 20.8315 4.57979 20.1294 4.57979ZM22.1638 5.97031V19.348H18.071V5.97031H22.1638Z" fill="#7868E6"/>
<path d="M30.2038 5.77851C31.1453 5.77851 31.967 5.97031 32.6691 6.3539C33.3871 6.73749 33.9376 7.24095 34.3205 7.86429V5.97031H38.4133V19.324C38.4133 20.5547 38.166 21.6655 37.6713 22.6565C37.1926 23.6634 36.4507 24.4626 35.4454 25.0539C34.4562 25.6453 33.2196 25.941 31.7356 25.941C29.7571 25.941 28.1535 25.4695 26.9248 24.5265C25.6962 23.5995 24.9941 22.3368 24.8186 20.7385H28.8635C28.9912 21.25 29.2943 21.6496 29.773 21.9373C30.2517 22.2409 30.8421 22.3928 31.5442 22.3928C32.3898 22.3928 33.06 22.145 33.5546 21.6496C34.0652 21.1701 34.3205 20.3949 34.3205 19.324V17.4301C33.9216 18.0534 33.3711 18.5649 32.6691 18.9644C31.967 19.348 31.1453 19.5398 30.2038 19.5398C29.1029 19.5398 28.1056 19.2601 27.2121 18.7007C26.3185 18.1253 25.6085 17.3182 25.0819 16.2793C24.5713 15.2244 24.316 14.0097 24.316 12.6352C24.316 11.2607 24.5713 10.0539 25.0819 9.01506C25.6085 7.97617 26.3185 7.17702 27.2121 6.61762C28.1056 6.05822 29.1029 5.77851 30.2038 5.77851ZM34.3205 12.6592C34.3205 11.6363 34.0333 10.8291 33.4589 10.2378C32.9004 9.64638 32.2143 9.3507 31.4006 9.3507C30.5868 9.3507 29.8927 9.64638 29.3183 10.2378C28.7598 10.8131 28.4806 11.6123 28.4806 12.6352C28.4806 13.6581 28.7598 14.4732 29.3183 15.0806C29.8927 15.6719 30.5868 15.9676 31.4006 15.9676C32.2143 15.9676 32.9004 15.6719 33.4589 15.0806C34.0333 14.4892 34.3205 13.6821 34.3205 12.6592Z" fill="#7868E6"/>
<path d="M43.4326 4.57979C42.7146 4.57979 42.1242 4.37202 41.6614 3.95646C41.2147 3.52492 40.9913 2.99748 40.9913 2.37415C40.9913 1.73483 41.2147 1.2074 41.6614 0.79184C42.1242 0.360301 42.7146 0.144531 43.4326 0.144531C44.1347 0.144531 44.7091 0.360301 45.1558 0.79184C45.6186 1.2074 45.8499 1.73483 45.8499 2.37415C45.8499 2.99748 45.6186 3.52492 45.1558 3.95646C44.7091 4.37202 44.1347 4.57979 43.4326 4.57979ZM45.467 5.97031V19.348H41.3742V5.97031H45.467Z" fill="#7868E6"/>
<path d="M55.8765 15.8717V19.348H53.7943C52.3103 19.348 51.1535 18.9884 50.3238 18.2692C49.4941 17.534 49.0792 16.3432 49.0792 14.697V9.37467H47.4517V5.97031H49.0792V2.70979H53.172V5.97031H55.8526V9.37467H53.172V14.7449C53.172 15.1445 53.2677 15.4322 53.4592 15.608C53.6507 15.7838 53.9698 15.8717 54.4165 15.8717H55.8765Z" fill="#7868E6"/>
<path d="M57.3425 12.6352C57.3425 11.2607 57.5978 10.0539 58.1084 9.01506C58.635 7.97617 59.345 7.17702 60.2386 6.61762C61.1321 6.05822 62.1294 5.77851 63.2303 5.77851C64.1718 5.77851 64.9935 5.97031 65.6956 6.3539C66.4136 6.73749 66.9641 7.24095 67.347 7.86429V5.97031H71.4398V19.348H67.347V17.454C66.9481 18.0774 66.3897 18.5808 65.6716 18.9644C64.9696 19.348 64.1478 19.5398 63.2064 19.5398C62.1214 19.5398 61.1321 19.2601 60.2386 18.7007C59.345 18.1253 58.635 17.3182 58.1084 16.2793C57.5978 15.2244 57.3425 14.0097 57.3425 12.6352ZM67.347 12.6592C67.347 11.6363 67.0598 10.8291 66.4854 10.2378C65.9269 9.64638 65.2408 9.3507 64.4271 9.3507C63.6133 9.3507 62.9192 9.64638 62.3448 10.2378C61.7863 10.8131 61.5071 11.6123 61.5071 12.6352C61.5071 13.6581 61.7863 14.4732 62.3448 15.0806C62.9192 15.6719 63.6133 15.9676 64.4271 15.9676C65.2408 15.9676 65.9269 15.6719 66.4854 15.0806C67.0598 14.4892 67.347 13.6821 67.347 12.6592Z" fill="#7868E6"/>
<path d="M78.4935 1.60697V19.348H74.4007V1.60697H78.4935Z" fill="#7868E6"/>
<path d="M6.16005 28.2828V29.859H2.10776V32.3558H5.21312V33.9041H2.10776V38.019H0.158203V28.2828H6.16005Z" fill="#7868E6"/>
<path d="M9.49203 31.491C9.74269 31.0818 10.0676 30.761 10.4668 30.5285C10.8753 30.296 11.3395 30.1798 11.8593 30.1798V32.2303H11.3441C10.7314 32.2303 10.2672 32.3744 9.95157 32.6627C9.64521 32.9509 9.49203 33.4531 9.49203 34.1691V38.019H7.54247V30.2914H9.49203V31.491Z" fill="#7868E6"/>
<path d="M12.6712 34.1273C12.6712 33.3462 12.8243 32.6534 13.1307 32.0489C13.4463 31.4445 13.8687 30.9795 14.3979 30.6541C14.9364 30.3286 15.5351 30.1658 16.1943 30.1658C16.7699 30.1658 17.2712 30.2821 17.6982 30.5146C18.1346 30.747 18.4827 31.04 18.7426 31.3933V30.2914H20.7061V38.019H18.7426V36.8891C18.492 37.2518 18.1438 37.554 17.6982 37.7958C17.2619 38.0283 16.7559 38.1445 16.1804 38.1445C15.5305 38.1445 14.9364 37.9771 14.3979 37.6424C13.8687 37.3076 13.4463 36.838 13.1307 36.2336C12.8243 35.6198 12.6712 34.9177 12.6712 34.1273ZM18.7426 34.1552C18.7426 33.6809 18.6498 33.2764 18.4641 32.9416C18.2785 32.5976 18.0278 32.3372 17.7122 32.1605C17.3965 31.9745 17.0577 31.8815 16.6956 31.8815C16.3335 31.8815 15.9993 31.9699 15.693 32.1466C15.3866 32.3233 15.136 32.5836 14.941 32.9277C14.7553 33.2625 14.6625 33.6623 14.6625 34.1273C14.6625 34.5922 14.7553 35.0014 14.941 35.3548C15.136 35.6988 15.3866 35.9639 15.693 36.1499C16.0086 36.3358 16.3428 36.4288 16.6956 36.4288C17.0577 36.4288 17.3965 36.3405 17.7122 36.1638C18.0278 35.9778 18.2785 35.7174 18.4641 35.3827C18.6498 35.0386 18.7426 34.6294 18.7426 34.1552Z" fill="#7868E6"/>
<path d="M32.1909 30.1798C33.1378 30.1798 33.8991 30.4727 34.4746 31.0586C35.0595 31.6351 35.3519 32.4441 35.3519 33.4856V38.019H33.4024V33.7507C33.4024 33.1462 33.2492 32.6859 32.9428 32.3698C32.6365 32.0443 32.2187 31.8815 31.6896 31.8815C31.1604 31.8815 30.738 32.0443 30.4223 32.3698C30.116 32.6859 29.9628 33.1462 29.9628 33.7507V38.019H28.0132V33.7507C28.0132 33.1462 27.8601 32.6859 27.5537 32.3698C27.2474 32.0443 26.8296 31.8815 26.3004 31.8815C25.762 31.8815 25.3349 32.0443 25.0193 32.3698C24.7129 32.6859 24.5597 33.1462 24.5597 33.7507V38.019H22.6102V30.2914H24.5597V31.226C24.8104 30.9005 25.1307 30.6448 25.5206 30.4588C25.9198 30.2728 26.3561 30.1798 26.8296 30.1798C27.433 30.1798 27.9715 30.31 28.4449 30.5704C28.9184 30.8214 29.2851 31.1841 29.545 31.6584C29.7957 31.212 30.1578 30.854 30.6312 30.5843C31.114 30.3146 31.6339 30.1798 32.1909 30.1798Z" fill="#7868E6"/>
<path d="M44.3735 33.9878C44.3735 34.2668 44.355 34.5179 44.3178 34.741H38.678C38.7245 35.299 38.9194 35.736 39.2629 36.0522C39.6064 36.3684 40.0288 36.5265 40.5301 36.5265C41.2542 36.5265 41.7695 36.215 42.0758 35.5919H44.1786C43.9558 36.3358 43.5287 36.9496 42.8974 37.4331C42.2662 37.9074 41.491 38.1445 40.5719 38.1445C39.8292 38.1445 39.1608 37.9818 38.5666 37.6563C37.9818 37.3216 37.5222 36.8519 37.188 36.2475C36.8631 35.6431 36.7006 34.9456 36.7006 34.1552C36.7006 33.3555 36.8631 32.6534 37.188 32.0489C37.5129 31.4445 37.9678 30.9795 38.5527 30.6541C39.1376 30.3286 39.8106 30.1658 40.5719 30.1658C41.3053 30.1658 41.9598 30.3239 42.5354 30.6401C43.1202 30.9563 43.5705 31.4073 43.8861 31.9931C44.2111 32.5697 44.3735 33.2346 44.3735 33.9878ZM42.3543 33.4299C42.3451 32.9277 42.164 32.5278 41.8113 32.2303C41.4585 31.9234 41.0268 31.77 40.5162 31.77C40.0334 31.77 39.625 31.9187 39.2908 32.2163C38.9658 32.5046 38.7662 32.9091 38.692 33.4299H42.3543Z" fill="#7868E6"/>
<path d="M56.4912 30.2914L54.2353 38.019H52.1326L50.7261 32.6208L49.3197 38.019H47.203L44.9332 30.2914H46.9106L48.2753 36.1778L49.7513 30.2914H51.8123L53.2605 36.1638L54.6252 30.2914H56.4912Z" fill="#7868E6"/>
<path d="M60.9717 38.1445C60.229 38.1445 59.5606 37.9818 58.9665 37.6563C58.3723 37.3216 57.9035 36.8519 57.56 36.2475C57.2258 35.6431 57.0587 34.9456 57.0587 34.1552C57.0587 33.3648 57.2304 32.6673 57.5739 32.0629C57.9267 31.4584 58.4048 30.9935 59.0083 30.668C59.6117 30.3332 60.2848 30.1658 61.0274 30.1658C61.7701 30.1658 62.4432 30.3332 63.0466 30.668C63.6501 30.9935 64.1235 31.4584 64.467 32.0629C64.8198 32.6673 64.9962 33.3648 64.9962 34.1552C64.9962 34.9456 64.8151 35.6431 64.4531 36.2475C64.1003 36.8519 63.6176 37.3216 63.0048 37.6563C62.4014 37.9818 61.7237 38.1445 60.9717 38.1445ZM60.9717 36.4428C61.3245 36.4428 61.6541 36.3591 61.9604 36.1917C62.2761 36.015 62.5267 35.7546 62.7124 35.4106C62.8981 35.0665 62.9909 34.648 62.9909 34.1552C62.9909 33.4206 62.796 32.858 62.4061 32.4674C62.0254 32.0675 61.5566 31.8676 60.9996 31.8676C60.4426 31.8676 59.9738 32.0675 59.5931 32.4674C59.2218 32.858 59.0361 33.4206 59.0361 34.1552C59.0361 34.8898 59.2171 35.4571 59.5792 35.8569C59.9505 36.2475 60.4147 36.4428 60.9717 36.4428Z" fill="#7868E6"/>
<path d="M68.3758 31.491C68.6265 31.0818 68.9514 30.761 69.3506 30.5285C69.7591 30.296 70.2232 30.1798 70.7431 30.1798V32.2303H70.2279C69.6152 32.2303 69.151 32.3744 68.8353 32.6627C68.529 32.9509 68.3758 33.4531 68.3758 34.1691V38.019H66.4263V30.2914H68.3758V31.491Z" fill="#7868E6"/>
<path d="M76.6238 38.019L74.0058 34.7271V38.019H72.0563V27.6969H74.0058V33.5693L76.5959 30.2914H79.1303L75.7326 34.1691L79.1582 38.019H76.6238Z" fill="#7868E6"/>
</svg>
