<svg width="32" height="33" viewBox="0 0 32 33" fill="none" xmlns="http://www.w3.org/2000/svg">
<path d="M2.93842 3.00001C2.81505 2.99954 2.69282 3.02352 2.57876 3.0707C2.4647 3.11788 2.36107 3.18729 2.27383 3.27487C2.1866 3.36245 2.1175 3.46646 2.07051 3.58097C2.02351 3.69549 1.99956 3.81824 2.00003 3.94209V11.7694C1.9991 11.8927 2.02236 12.0149 2.06848 12.1291C2.11461 12.2433 2.18269 12.3474 2.26884 12.4352C2.355 12.523 2.45754 12.5929 2.57061 12.6409C2.68368 12.6889 2.80506 12.7141 2.92783 12.715C3.13244 12.715 3.33353 12.7363 3.5205 12.7753C3.71086 12.8156 3.90901 12.7953 4.08733 12.7172C4.26566 12.6391 4.41528 12.5072 4.51533 12.3397C4.7492 11.9474 5.10476 11.6429 5.5275 11.4729C5.95025 11.303 6.41685 11.2769 6.85577 11.3987C7.2947 11.5205 7.68173 11.7835 7.95752 12.1473C8.23332 12.5111 8.38267 12.9557 8.38267 13.4129C8.38267 13.87 8.23332 14.3146 7.95752 14.6784C7.68173 15.0422 7.2947 15.3051 6.85577 15.4269C6.41685 15.5487 5.95025 15.5227 5.5275 15.3527C5.10476 15.1827 4.7492 14.8782 4.51533 14.4859C4.41528 14.3184 4.26566 14.1865 4.08733 14.1084C3.90901 14.0303 3.71086 14.01 3.5205 14.0504C3.32763 14.0882 3.13139 14.106 2.93489 14.1034C2.81182 14.1034 2.68997 14.1279 2.57632 14.1753C2.46266 14.2227 2.35945 14.2921 2.27259 14.3796C2.18573 14.4671 2.11695 14.5711 2.07017 14.6854C2.0234 14.7996 1.99956 14.9221 2.00003 15.0456V22.1504C2.00003 22.3993 2.09852 22.638 2.27384 22.814C2.44916 22.99 2.68695 23.089 2.93489 23.089H10.569C9.91989 23.808 9.19317 24.5269 9.19317 25.5257C9.19317 27.7039 10.9712 29.489 13.1407 29.489C15.3068 29.489 17.0919 27.7003 17.0883 25.5221C17.0883 24.5304 16.3616 23.808 15.7125 23.089H22.6975C22.9448 23.0881 23.1817 22.9887 23.3563 22.8128C23.5308 22.6369 23.6288 22.3987 23.6288 22.1504V15.4104C24.345 16.0692 25.0646 16.7988 26.0595 16.8023C28.2291 16.8023 30 15.0137 30 12.8355C29.9972 11.7871 29.5811 10.7825 28.8428 10.0412C28.1044 9.29988 27.1037 8.88218 26.0595 8.87938H26.0524C25.0576 8.87938 24.345 9.60896 23.6288 10.2642V3.94209C23.6293 3.81883 23.6056 3.69664 23.559 3.58259C23.5125 3.46854 23.444 3.36484 23.3575 3.27736C23.271 3.18987 23.1682 3.12035 23.055 3.07275C22.9417 3.02515 22.8203 3.00047 22.6975 3.00001H14.7671C14.5203 3.00094 14.284 3.09972 14.1095 3.27487C13.9351 3.45002 13.8367 3.68726 13.8357 3.93496C13.8357 4.13482 13.8156 4.33427 13.7757 4.53008C13.7364 4.72066 13.757 4.91879 13.8347 5.0971C13.9124 5.27541 14.0435 5.42499 14.2097 5.52523C14.6046 5.75654 14.9122 6.11266 15.0845 6.5379C15.2568 6.96314 15.284 7.4336 15.162 7.87601C15.0399 8.31842 14.7754 8.7079 14.4098 8.98357C14.0442 9.25925 13.598 9.40569 13.1407 9.40003C12.8675 9.40191 12.5966 9.34927 12.3437 9.24536C12.0908 9.14145 11.8609 8.9883 11.6673 8.79464C11.4738 8.60097 11.3204 8.37071 11.216 8.11715C11.1117 7.8636 11.0584 7.59177 11.0594 7.31742V7.31029C11.0607 6.9504 11.1547 6.59696 11.332 6.28422C11.5094 5.97148 11.7642 5.71006 12.0718 5.52523C12.238 5.42499 12.3691 5.27541 12.4468 5.0971C12.5245 4.91879 12.5451 4.72066 12.5057 4.53008C12.4659 4.33427 12.4458 4.13482 12.4458 3.93496C12.4448 3.68726 12.3464 3.45002 12.172 3.27487C11.9975 3.09972 11.7612 3.00094 11.5144 3.00001H2.93842ZM3.86622 4.87715H10.569C9.91989 5.59259 9.19317 6.31504 9.19317 7.31029C9.19317 9.48848 10.9712 11.2772 13.1407 11.2772C15.3068 11.2772 17.0919 9.48848 17.0883 7.31029C17.0883 6.3115 16.3616 5.59613 15.7125 4.87715H21.7591V11.2063C21.7591 11.4546 21.8571 11.6928 22.0317 11.8687C22.2062 12.0446 22.4431 12.144 22.6904 12.1449C22.8915 12.1449 23.0961 12.1662 23.2831 12.2087C23.4737 12.2476 23.6716 12.2258 23.8493 12.1464C24.027 12.0671 24.1756 11.9341 24.2744 11.7659C24.4595 11.4569 24.7213 11.2014 25.0342 11.0245C25.3471 10.8475 25.7004 10.7552 26.0595 10.7565C27.2201 10.7565 28.1409 11.6738 28.1409 12.839C28.3058 13.1152 28.405 13.426 28.4306 13.7471C28.4561 14.0681 28.4075 14.3907 28.2884 14.6897C28.1692 14.9887 27.9829 15.2561 27.7439 15.4708C27.5048 15.6856 27.2196 15.842 26.9104 15.9278C26.6012 16.0136 26.2765 16.0265 25.9615 15.9655C25.6466 15.9045 25.3499 15.7712 25.0947 15.5761C24.8395 15.381 24.6327 15.1293 24.4904 14.8407C24.3481 14.552 24.2742 14.2343 24.2744 13.9122C24.1751 13.7447 24.0262 13.6124 23.8486 13.5337C23.671 13.455 23.4733 13.4338 23.2831 13.4731C23.0906 13.5142 22.8944 13.5355 22.6975 13.5368C22.5747 13.5364 22.4531 13.5601 22.3395 13.6069C22.2259 13.6536 22.1226 13.7224 22.0354 13.8092C21.9483 13.896 21.879 13.9992 21.8316 14.1129C21.7842 14.2266 21.7596 14.3485 21.7591 14.4718V21.2154H14.7671C14.5203 21.2163 14.284 21.3151 14.1095 21.4903C13.9351 21.6654 13.8367 21.9027 13.8357 22.1504C13.8357 22.3502 13.8156 22.5496 13.7757 22.7454C13.7371 22.9354 13.7581 23.1329 13.8358 23.3105C13.9135 23.488 14.0441 23.6371 14.2097 23.7371C14.6064 23.9676 14.9158 24.3237 15.0893 24.7497C15.2628 25.1757 15.2906 25.6475 15.1683 26.0911C15.0461 26.5346 14.7807 26.9249 14.4137 27.2007C14.0468 27.4766 13.5991 27.6224 13.1407 27.6153C12.867 27.7757 12.5602 27.8708 12.244 27.8933C11.9279 27.9159 11.6108 27.8652 11.3172 27.7454C11.0236 27.6255 10.7614 27.4396 10.5506 27.2019C10.3399 26.9642 10.1863 26.6812 10.1017 26.3745C10.0171 26.0678 10.0037 25.7457 10.0627 25.4331C10.1216 25.1204 10.2512 24.8255 10.4415 24.5711C10.6318 24.3166 10.8778 24.1094 11.1605 23.9655C11.4431 23.8215 11.7549 23.7446 12.0718 23.7406C12.238 23.6404 12.3691 23.4908 12.4468 23.3125C12.5245 23.1342 12.5451 22.936 12.5057 22.7454C12.4659 22.5496 12.4458 22.3502 12.4458 22.1504C12.4448 21.9027 12.3464 21.6654 12.172 21.4903C11.9975 21.3151 11.7612 21.2163 11.5144 21.2154H3.86622V15.9841C4.58236 16.6394 5.29497 17.3655 6.2898 17.369H6.29686C7.34171 17.3672 8.34328 16.9498 9.08243 16.2084C9.82157 15.467 10.2381 14.4618 10.2409 13.4129C10.2409 11.2347 8.46644 9.44597 6.29686 9.44597H6.2898C5.2985 9.44951 4.58236 10.1757 3.86622 10.8309V4.87715Z" fill="#405189"/>
</svg>
