<svg width="24" height="24" viewBox="0 0 24 24" fill="none" xmlns="http://www.w3.org/2000/svg">
<path d="M2.20381 2.25001C2.11129 2.24965 2.01961 2.26764 1.93407 2.30302C1.84852 2.33841 1.7708 2.39047 1.70538 2.45615C1.63995 2.52184 1.58813 2.59984 1.55288 2.68573C1.51764 2.77161 1.49967 2.86368 1.50002 2.95657V8.82705C1.49932 8.91949 1.51677 9.01116 1.55136 9.09683C1.58595 9.18251 1.63702 9.26055 1.70163 9.32641C1.76625 9.39227 1.84315 9.44466 1.92796 9.48068C2.01276 9.5167 2.1038 9.53559 2.19587 9.53629C2.34933 9.53629 2.50015 9.55222 2.64037 9.58144C2.78314 9.6117 2.93175 9.59648 3.0655 9.53791C3.19924 9.47934 3.31146 9.38038 3.3865 9.25475C3.5619 8.96053 3.82857 8.73216 4.14563 8.60469C4.46269 8.47721 4.81264 8.45765 5.14183 8.549C5.47102 8.64035 5.76129 8.8376 5.96814 9.11045C6.17499 9.38331 6.287 9.71675 6.287 10.0596C6.287 10.4025 6.17499 10.736 5.96814 11.0088C5.76129 11.2817 5.47102 11.4789 5.14183 11.5702C4.81264 11.6616 4.46269 11.642 4.14563 11.5145C3.82857 11.387 3.5619 11.1587 3.3865 10.8645C3.31146 10.7388 3.19924 10.6399 3.0655 10.5813C2.93175 10.5227 2.78314 10.5075 2.64037 10.5378C2.49573 10.5662 2.34854 10.5795 2.20117 10.5776C2.10887 10.5776 2.01748 10.5959 1.93224 10.6315C1.847 10.667 1.76959 10.719 1.70444 10.7847C1.6393 10.8503 1.58771 10.9283 1.55263 11.014C1.51755 11.0997 1.49967 11.1915 1.50002 11.2842V16.6128C1.50002 16.7995 1.57389 16.9785 1.70538 17.1105C1.83687 17.2425 2.01521 17.3167 2.20117 17.3167H7.92675C7.43992 17.856 6.89487 18.3952 6.89487 19.1443C6.89487 20.7779 8.22837 22.1168 9.85556 22.1168C11.4801 22.1168 12.8189 20.7752 12.8162 19.1416C12.8162 18.3978 12.2712 17.856 11.7844 17.3167H17.0231C17.2086 17.316 17.3863 17.2416 17.5172 17.1096C17.6481 16.9777 17.7216 16.799 17.7216 16.6128V11.5578C18.2587 12.0519 18.7985 12.5991 19.5446 12.6018C21.1718 12.6018 22.5 11.2602 22.5 9.62659C22.4979 8.84031 22.1859 8.08689 21.6321 7.5309C21.0783 6.97491 20.3278 6.66164 19.5446 6.65953H19.5393C18.7932 6.65953 18.2587 7.20672 17.7216 7.69814V2.95657C17.722 2.86413 17.7042 2.77248 17.6693 2.68695C17.6344 2.60141 17.583 2.52363 17.5181 2.45802C17.4533 2.39241 17.3762 2.34026 17.2912 2.30456C17.2063 2.26886 17.1152 2.25035 17.0231 2.25001H11.0753C10.8903 2.2507 10.713 2.32479 10.5821 2.45615C10.4513 2.58752 10.3775 2.76544 10.3768 2.95122C10.3768 3.10111 10.3617 3.2507 10.3318 3.39756C10.3023 3.5405 10.3177 3.6891 10.376 3.82283C10.4343 3.95656 10.5326 4.06875 10.6572 4.14393C10.9535 4.3174 11.1842 4.58449 11.3134 4.90342C11.4426 5.22236 11.463 5.5752 11.3715 5.90701C11.2799 6.23882 11.0816 6.53093 10.8074 6.73768C10.5331 6.94444 10.1985 7.05427 9.85556 7.05002C9.65062 7.05143 9.44743 7.01195 9.25775 6.93402C9.06807 6.85609 8.89566 6.74123 8.75049 6.59598C8.60533 6.45073 8.49028 6.27803 8.41202 6.08786C8.33375 5.8977 8.29382 5.69383 8.29452 5.48806V5.48271C8.29555 5.2128 8.36599 4.94772 8.49903 4.71316C8.63207 4.47861 8.82319 4.28254 9.05387 4.14393C9.17852 4.06875 9.27679 3.95656 9.3351 3.82283C9.3934 3.6891 9.40886 3.5405 9.37931 3.39756C9.34939 3.25071 9.33432 3.10111 9.33433 2.95122C9.33364 2.76544 9.25982 2.58752 9.12898 2.45615C8.99813 2.32479 8.82087 2.2507 8.63583 2.25001H2.20381ZM2.89967 3.65786H7.92675C7.43992 4.19444 6.89487 4.73628 6.89487 5.48271C6.89487 7.11636 8.22837 8.45788 9.85556 8.45788C11.4801 8.45788 12.8189 7.11636 12.8162 5.48271C12.8162 4.73363 12.2712 4.1971 11.7844 3.65786H16.3193V8.4047C16.3193 8.59093 16.3928 8.76961 16.5238 8.90155C16.6547 9.03348 16.8323 9.10797 17.0178 9.10867C17.1686 9.10867 17.3221 9.12462 17.4623 9.1565C17.6053 9.18566 17.7537 9.16932 17.887 9.1098C18.0202 9.05029 18.1317 8.95056 18.2058 8.82445C18.3446 8.59271 18.5409 8.40105 18.7756 8.26835C19.0103 8.13565 19.2753 8.06643 19.5446 8.06739C20.4151 8.06739 21.1056 8.75533 21.1056 9.62927C21.2294 9.83642 21.3037 10.0695 21.3229 10.3103C21.3421 10.5511 21.3056 10.793 21.2163 11.0173C21.1269 11.2415 20.9872 11.442 20.8079 11.6031C20.6286 11.7642 20.4147 11.8815 20.1828 11.9459C19.9509 12.0102 19.7074 12.0199 19.4711 11.9742C19.2349 11.9284 19.0124 11.8284 18.821 11.6821C18.6296 11.5357 18.4745 11.347 18.3678 11.1305C18.2611 10.914 18.2056 10.6757 18.2058 10.4342C18.1313 10.3085 18.0197 10.2093 17.8864 10.1503C17.7532 10.0912 17.605 10.0754 17.4623 10.1048C17.3179 10.1356 17.1708 10.1517 17.0231 10.1526C16.9311 10.1523 16.8398 10.1701 16.7546 10.2052C16.6694 10.2402 16.5919 10.2918 16.5266 10.3569C16.4612 10.422 16.4093 10.4994 16.3737 10.5847C16.3382 10.67 16.3197 10.7614 16.3193 10.8538V15.9116H11.0753C10.8903 15.9123 10.713 15.9863 10.5821 16.1177C10.4513 16.2491 10.3775 16.427 10.3768 16.6128C10.3768 16.7627 10.3617 16.9122 10.3318 17.059C10.3029 17.2016 10.3186 17.3497 10.3769 17.4828C10.4352 17.616 10.5331 17.7278 10.6572 17.8028C10.9548 17.9757 11.1868 18.2428 11.317 18.5623C11.4471 18.8818 11.4679 19.2357 11.3762 19.5683C11.2845 19.901 11.0855 20.1936 10.8103 20.4005C10.5351 20.6074 10.1993 20.7168 9.85556 20.7115C9.65023 20.8317 9.42015 20.9031 9.18303 20.92C8.94592 20.9369 8.70811 20.8989 8.48791 20.809C8.26771 20.7191 8.07101 20.5797 7.91296 20.4014C7.75491 20.2232 7.63972 20.0109 7.57627 19.7809C7.51282 19.5509 7.5028 19.3093 7.54699 19.0748C7.59118 18.8403 7.68839 18.6191 7.83114 18.4283C7.97388 18.2375 8.15836 18.0821 8.37035 17.9741C8.58233 17.8661 8.81618 17.8084 9.05387 17.8055C9.17852 17.7303 9.27679 17.6181 9.3351 17.4844C9.3934 17.3507 9.40886 17.202 9.37931 17.059C9.34939 16.9122 9.33432 16.7627 9.33433 16.6128C9.33364 16.427 9.25982 16.2491 9.12898 16.1177C8.99813 15.9863 8.82087 15.9123 8.63583 15.9116H2.89967V11.9881C3.43677 12.4795 3.97123 13.0241 4.71735 13.0268H4.72265C5.50628 13.0254 6.25746 12.7124 6.81182 12.1563C7.36618 11.6002 7.67859 10.8464 7.68069 10.0596C7.68069 8.42599 6.34983 7.08448 4.72265 7.08448H4.71735C3.97387 7.08713 3.43677 7.63174 2.89967 8.12316V3.65786Z" fill="#495057"/>
</svg>
