<svg width="32" height="32" viewBox="0 0 32 32" fill="none" xmlns="http://www.w3.org/2000/svg">
<path d="M18 31H6C4.9 31 4 30.1 4 29V12H6V29H18V31Z" fill="#495057"/>
<path d="M22 27H10C8.9 27 8 26.1 8 25V8H10V25H22V27Z" fill="#495057"/>
<path d="M16 16H24V18H16V16Z" fill="#495057"/>
<path d="M27.7 9.3L20.7 2.3C20.5 2.1 20.3 2 20 2H14C12.9 2 12 2.9 12 4V21C12 22.1 12.9 23 14 23H26C27.1 23 28 22.1 28 21V10C28 9.7 27.9 9.5 27.7 9.3ZM20 4.4L25.6 10H20V4.4ZM26 21H14V4H18V10C18 11.1 18.9 12 20 12H26V21Z" fill="#495057"/>
</svg>
