
<svg width="32" height="33" viewBox="0 0 32 33" fill="none" xmlns="http://www.w3.org/2000/svg">
<path d="M2 22.4883H30V24.4883H2V22.4883ZM2 26.4883H30V28.4883H2V26.4883ZM24 10.4883C23.6044 10.4883 23.2178 10.6056 22.8889 10.8253C22.56 11.0451 22.3036 11.3575 22.1522 11.7229C22.0009 12.0884 21.9613 12.4905 22.0384 12.8785C22.1156 13.2664 22.3061 13.6228 22.5858 13.9025C22.8655 14.1822 23.2219 14.3727 23.6098 14.4499C23.9978 14.527 24.3999 14.4874 24.7654 14.336C25.1308 14.1847 25.4432 13.9283 25.6629 13.5994C25.8827 13.2705 26 12.8838 26 12.4883C26 11.9579 25.7893 11.4491 25.4142 11.0741C25.0391 10.699 24.5304 10.4883 24 10.4883ZM16 16.4883C15.2089 16.4883 14.4355 16.2537 13.7777 15.8142C13.1199 15.3746 12.6072 14.7499 12.3045 14.019C12.0017 13.2881 11.9225 12.4838 12.0769 11.7079C12.2312 10.932 12.6122 10.2193 13.1716 9.65986C13.731 9.10045 14.4437 8.71948 15.2196 8.56514C15.9956 8.4108 16.7998 8.49001 17.5307 8.79276C18.2616 9.09552 18.8864 9.60821 19.3259 10.266C19.7654 10.9238 20 11.6972 20 12.4883C19.9987 13.5487 19.5768 14.5654 18.827 15.3152C18.0771 16.0651 17.0605 16.487 16 16.4883ZM16 10.4883C15.6044 10.4883 15.2178 10.6056 14.8889 10.8253C14.56 11.0451 14.3036 11.3575 14.1522 11.7229C14.0009 12.0884 13.9613 12.4905 14.0384 12.8785C14.1156 13.2664 14.3061 13.6228 14.5858 13.9025C14.8655 14.1822 15.2219 14.3727 15.6098 14.4499C15.9978 14.527 16.3999 14.4874 16.7654 14.336C17.1308 14.1847 17.4432 13.9283 17.6629 13.5994C17.8827 13.2705 18 12.8838 18 12.4883C17.9995 11.958 17.7886 11.4496 17.4136 11.0747C17.0387 10.6997 16.5303 10.4888 16 10.4883ZM8 10.4883C7.60444 10.4883 7.21776 10.6056 6.88886 10.8253C6.55996 11.0451 6.30362 11.3575 6.15224 11.7229C6.00087 12.0884 5.96126 12.4905 6.03843 12.8785C6.1156 13.2664 6.30608 13.6228 6.58579 13.9025C6.86549 14.1822 7.22186 14.3727 7.60982 14.4499C7.99778 14.527 8.39991 14.4874 8.76537 14.336C9.13082 14.1847 9.44318 13.9283 9.66294 13.5994C9.8827 13.2705 10 12.8838 10 12.4883C10 11.9579 9.78929 11.4491 9.41421 11.0741C9.03914 10.699 8.53043 10.4883 8 10.4883Z" fill="#495057"/>
<path d="M28 20.4883H4C3.46997 20.487 2.96203 20.2758 2.58724 19.901C2.21246 19.5262 2.00132 19.0183 2 18.4883V6.48828C2.00132 5.95825 2.21246 5.45031 2.58724 5.07553C2.96203 4.70074 3.46997 4.4896 4 4.48828H28C28.53 4.4896 29.038 4.70074 29.4128 5.07553C29.7875 5.45031 29.9987 5.95825 30 6.48828V18.4883C29.9992 19.0185 29.7882 19.5267 29.4133 19.9016C29.0384 20.2765 28.5302 20.4875 28 20.4883ZM28 6.48828H4V18.4883H28V6.48828Z" fill="#495057"/>
</svg>
