<svg width="17" height="17" viewBox="0 0 17 17" fill="none" xmlns="http://www.w3.org/2000/svg">
<path d="M2.16406 8.5026C2.16406 5.01135 5.00615 2.16927 8.4974 2.16927C11.9886 2.16927 14.8307 5.01135 14.8307 8.5026C14.8307 11.9939 11.9886 14.8359 8.4974 14.8359C5.00615 14.8359 2.16406 11.9939 2.16406 8.5026ZM0.58073 8.5026C0.58073 12.8726 4.1274 16.4193 8.4974 16.4193C12.8674 16.4193 16.4141 12.8726 16.4141 8.5026C16.4141 4.1326 12.8674 0.585938 8.4974 0.585938C4.1274 0.585938 0.58073 4.1326 0.58073 8.5026ZM8.4974 7.71094H5.33073V9.29427H8.4974V11.6693L11.6641 8.5026L8.4974 5.33594V7.71094Z" fill="#7868E6"/>
</svg>
