<svg width="17" height="17" viewBox="0 0 17 17" fill="none" xmlns="http://www.w3.org/2000/svg">
<path d="M14.8311 8.49577C14.8311 11.9877 11.9884 14.8304 8.49642 14.8304C5.00445 14.8304 2.16178 11.9877 2.16178 8.49577C2.16178 5.0038 5.00445 2.16113 8.49642 2.16113C11.9884 2.16113 14.8311 5.0038 14.8311 8.49577ZM16.4147 8.49577C16.4147 4.12487 12.8673 0.577474 8.49642 0.577474C4.12552 0.577474 0.578125 4.12487 0.578125 8.49577C0.578125 12.8667 4.12552 16.4141 8.49642 16.4141C12.8673 16.4141 16.4147 12.8667 16.4147 8.49577ZM8.49642 9.2876H11.6637V7.70394H8.49642V5.32845L5.3291 8.49577L8.49642 11.6631V9.2876Z" fill="#7868E6"/>
</svg>
