<svg width="123" height="39" viewBox="0 0 123 39" fill="none" xmlns="http://www.w3.org/2000/svg">
<rect y="2.14453" width="33.1582" height="34" rx="10.1955" fill="url(#paint0_linear_1_11)"/>
<path d="M13.3023 19.7262H6.38656C6.3631 19.7262 6.33932 19.7292 6.31685 19.7359C5.65217 19.9351 5.63614 20.5481 5.71319 20.8343C6.3736 23.0058 7.76158 27.5101 8.03023 28.1548C8.29887 28.7996 8.76899 28.9384 8.97047 28.9272H15.5522C16.5193 28.9272 16.4701 28.166 16.3246 27.7854L14.0472 20.4845C14.0431 20.4715 14.0401 20.4579 14.0378 20.4444C13.9491 19.9231 13.5123 19.7483 13.3023 19.7262Z" fill="#00A885"/>
<path d="M15.6187 11.0963H9.03699C8.7146 11.0963 8.49971 11.3649 8.43257 11.4992C7.59305 12.9992 5.83343 16.1468 5.51106 16.7378C5.20612 17.2968 5.67839 17.7197 5.99563 17.8869C6.03002 17.9051 6.06848 17.9131 6.10735 17.9131H12.4085C12.9995 17.8795 13.3689 17.5773 13.5367 17.3086L16.2903 12.3388C16.747 11.3985 16.0329 11.1187 15.6187 11.0963Z" fill="#00664B"/>
<path opacity="0.95" d="M18.5407 10.1895H11.6249C11.6014 10.1895 11.5777 10.1925 11.5552 10.1993C10.8905 10.3984 10.8745 11.0115 10.9515 11.2976C11.6119 13.4692 12.9999 17.9734 13.2686 18.6181C13.5372 19.2629 14.0073 19.4017 14.2088 19.3905H20.7905C21.7577 19.3905 21.7084 18.6293 21.5629 18.2487L19.2855 10.9479C19.2815 10.9348 19.2784 10.9212 19.2761 10.9078C19.1874 10.3864 18.7506 10.2116 18.5407 10.1895Z" fill="#00A885"/>
<path d="M9.76163 13.3149L22.8106 10.054C23.2443 9.94558 23.6837 10.2093 23.7921 10.643L27.053 23.692C27.1614 24.1257 26.8977 24.5651 26.464 24.6735L13.415 27.9344C12.9813 28.0428 12.5419 27.7791 12.4335 27.3454L9.17257 14.2964C9.06419 13.8627 9.32792 13.4233 9.76163 13.3149Z" stroke="#F68C1F" stroke-width="1.33616" stroke-linejoin="round"/>
<path opacity="0.95" d="M21.2504 20.1288H14.675C14.3529 20.1288 14.1383 20.4649 14.0712 20.633C13.2325 22.5097 11.4745 26.4481 11.1525 27.1876C10.8505 27.881 11.3115 28.4069 11.6282 28.6199C11.6674 28.6462 11.7141 28.6582 11.7613 28.6582H18.0433C18.6337 28.6161 19.0028 28.238 19.1705 27.9019L21.9214 21.6834C22.3777 20.5069 21.6642 20.1568 21.2504 20.1288Z" fill="#00664B" fill-opacity="0.95"/>
<path d="M49.976 2.518C51.7471 2.518 53.2949 2.86962 54.6192 3.57287C55.9436 4.27612 56.9648 5.26706 57.6828 6.54569C58.4168 7.80835 58.7838 9.27078 58.7838 10.933C58.7838 12.5793 58.4168 14.0417 57.6828 15.3203C56.9648 16.599 55.9356 17.5899 54.5953 18.2931C53.2709 18.9964 51.7312 19.348 49.976 19.348H43.6813V2.518H49.976ZM49.7127 15.7998C51.2605 15.7998 52.4652 15.3763 53.3268 14.5292C54.1884 13.6821 54.6192 12.4834 54.6192 10.933C54.6192 9.38267 54.1884 8.17595 53.3268 7.31288C52.4652 6.4498 51.2605 6.01826 49.7127 6.01826H47.774V15.7998H49.7127Z" fill="#7868E6"/>
<path d="M63.1294 4.57979C62.4113 4.57979 61.821 4.37202 61.3582 3.95646C60.9115 3.52492 60.6881 2.99749 60.6881 2.37415C60.6881 1.73483 60.9115 1.2074 61.3582 0.79184C61.821 0.360301 62.4113 0.144531 63.1294 0.144531C63.8315 0.144531 64.4059 0.360301 64.8526 0.79184C65.3154 1.2074 65.5467 1.73483 65.5467 2.37415C65.5467 2.99749 65.3154 3.52492 64.8526 3.95646C64.4059 4.37202 63.8315 4.57979 63.1294 4.57979ZM65.1638 5.97031V19.348H61.071V5.97031H65.1638Z" fill="#7868E6"/>
<path d="M73.2038 5.77851C74.1453 5.77851 74.967 5.97031 75.6691 6.3539C76.3871 6.73749 76.9376 7.24095 77.3205 7.86429V5.97031H81.4133V19.324C81.4133 20.5547 81.166 21.6655 80.6713 22.6565C80.1927 23.6634 79.4507 24.4626 78.4455 25.0539C77.4562 25.6453 76.2196 25.941 74.7356 25.941C72.7571 25.941 71.1535 25.4695 69.9248 24.5265C68.6962 23.5995 67.9941 22.3368 67.8186 20.7385H71.8635C71.9912 21.25 72.2943 21.6496 72.773 21.9373C73.2517 22.2409 73.8421 22.3928 74.5442 22.3928C75.3898 22.3928 76.06 22.145 76.5546 21.6496C77.0652 21.1701 77.3205 20.3949 77.3205 19.324V17.4301C76.9216 18.0534 76.3711 18.5649 75.6691 18.9644C74.967 19.348 74.1453 19.5398 73.2038 19.5398C72.1029 19.5398 71.1056 19.2601 70.2121 18.7007C69.3185 18.1253 68.6085 17.3182 68.0819 16.2793C67.5713 15.2244 67.316 14.0097 67.316 12.6352C67.316 11.2607 67.5713 10.0539 68.0819 9.01506C68.6085 7.97617 69.3185 7.17702 70.2121 6.61762C71.1056 6.05822 72.1029 5.77851 73.2038 5.77851ZM77.3205 12.6592C77.3205 11.6363 77.0333 10.8291 76.4589 10.2378C75.9004 9.64638 75.2143 9.3507 74.4006 9.3507C73.5868 9.3507 72.8927 9.64638 72.3183 10.2378C71.7598 10.8131 71.4806 11.6123 71.4806 12.6352C71.4806 13.6581 71.7598 14.4732 72.3183 15.0806C72.8927 15.6719 73.5868 15.9676 74.4006 15.9676C75.2143 15.9676 75.9004 15.6719 76.4589 15.0806C77.0333 14.4892 77.3205 13.6821 77.3205 12.6592Z" fill="#7868E6"/>
<path d="M86.4326 4.57979C85.7146 4.57979 85.1242 4.37202 84.6614 3.95646C84.2147 3.52492 83.9913 2.99749 83.9913 2.37415C83.9913 1.73483 84.2147 1.2074 84.6614 0.79184C85.1242 0.360301 85.7146 0.144531 86.4326 0.144531C87.1347 0.144531 87.7091 0.360301 88.1558 0.79184C88.6186 1.2074 88.8499 1.73483 88.8499 2.37415C88.8499 2.99749 88.6186 3.52492 88.1558 3.95646C87.7091 4.37202 87.1347 4.57979 86.4326 4.57979ZM88.467 5.97031V19.348H84.3742V5.97031H88.467Z" fill="#7868E6"/>
<path d="M98.8765 15.8717V19.348H96.7943C95.3103 19.348 94.1535 18.9884 93.3238 18.2692C92.4941 17.534 92.0792 16.3432 92.0792 14.697V9.37467H90.4517V5.97031H92.0792V2.70979H96.172V5.97031H98.8526V9.37467H96.172V14.7449C96.172 15.1445 96.2677 15.4322 96.4592 15.608C96.6507 15.7838 96.9698 15.8717 97.4165 15.8717H98.8765Z" fill="#7868E6"/>
<path d="M100.343 12.6352C100.343 11.2607 100.598 10.0539 101.108 9.01506C101.635 7.97617 102.345 7.17702 103.239 6.61762C104.132 6.05822 105.129 5.77851 106.23 5.77851C107.172 5.77851 107.994 5.97031 108.696 6.3539C109.414 6.73749 109.964 7.24095 110.347 7.86429V5.97031H114.44V19.348H110.347V17.454C109.948 18.0774 109.39 18.5808 108.672 18.9644C107.97 19.348 107.148 19.5398 106.206 19.5398C105.121 19.5398 104.132 19.2601 103.239 18.7007C102.345 18.1253 101.635 17.3182 101.108 16.2793C100.598 15.2244 100.343 14.0097 100.343 12.6352ZM110.347 12.6592C110.347 11.6363 110.06 10.8291 109.485 10.2378C108.927 9.64638 108.241 9.3507 107.427 9.3507C106.613 9.3507 105.919 9.64638 105.345 10.2378C104.786 10.8131 104.507 11.6123 104.507 12.6352C104.507 13.6581 104.786 14.4732 105.345 15.0806C105.919 15.6719 106.613 15.9676 107.427 15.9676C108.241 15.9676 108.927 15.6719 109.485 15.0806C110.06 14.4892 110.347 13.6821 110.347 12.6592Z" fill="#7868E6"/>
<path d="M121.494 1.60697V19.348H117.401V1.60697H121.494Z" fill="#7868E6"/>
<path d="M49.1601 28.2828V29.859H45.1078V32.3558H48.2131V33.9041H45.1078V38.019H43.1582V28.2828H49.1601Z" fill="#7868E6"/>
<path d="M52.492 31.491C52.7427 31.0818 53.0676 30.761 53.4668 30.5285C53.8753 30.296 54.3395 30.1798 54.8593 30.1798V32.2303H54.3441C53.7314 32.2303 53.2672 32.3744 52.9516 32.6627C52.6452 32.9509 52.492 33.4531 52.492 34.1691V38.019H50.5425V30.2914H52.492V31.491Z" fill="#7868E6"/>
<path d="M55.6712 34.1273C55.6712 33.3462 55.8243 32.6534 56.1307 32.0489C56.4463 31.4445 56.8687 30.9795 57.3979 30.6541C57.9364 30.3286 58.5351 30.1658 59.1943 30.1658C59.7699 30.1658 60.2712 30.2821 60.6982 30.5146C61.1346 30.747 61.4827 31.04 61.7426 31.3933V30.2914H63.7061V38.019H61.7426V36.8891C61.492 37.2518 61.1438 37.554 60.6982 37.7958C60.2619 38.0283 59.7559 38.1445 59.1804 38.1445C58.5305 38.1445 57.9364 37.9771 57.3979 37.6424C56.8687 37.3076 56.4463 36.838 56.1307 36.2336C55.8243 35.6198 55.6712 34.9177 55.6712 34.1273ZM61.7426 34.1552C61.7426 33.6809 61.6498 33.2764 61.4641 32.9416C61.2785 32.5976 61.0278 32.3372 60.7122 32.1605C60.3965 31.9745 60.0577 31.8815 59.6956 31.8815C59.3335 31.8815 58.9993 31.9699 58.693 32.1466C58.3866 32.3233 58.136 32.5836 57.941 32.9277C57.7553 33.2625 57.6625 33.6623 57.6625 34.1273C57.6625 34.5922 57.7553 35.0014 57.941 35.3548C58.136 35.6988 58.3866 35.9639 58.693 36.1499C59.0086 36.3358 59.3428 36.4288 59.6956 36.4288C60.0577 36.4288 60.3965 36.3405 60.7122 36.1638C61.0278 35.9778 61.2785 35.7174 61.4641 35.3827C61.6498 35.0386 61.7426 34.6294 61.7426 34.1552Z" fill="#7868E6"/>
<path d="M75.1909 30.1798C76.1378 30.1798 76.8991 30.4727 77.4746 31.0586C78.0595 31.6351 78.3519 32.4441 78.3519 33.4856V38.019H76.4024V33.7507C76.4024 33.1462 76.2492 32.6859 75.9428 32.3697C75.6365 32.0443 75.2187 31.8815 74.6896 31.8815C74.1604 31.8815 73.738 32.0443 73.4223 32.3697C73.116 32.6859 72.9628 33.1462 72.9628 33.7507V38.019H71.0132V33.7507C71.0132 33.1462 70.8601 32.6859 70.5537 32.3697C70.2474 32.0443 69.8296 31.8815 69.3004 31.8815C68.762 31.8815 68.3349 32.0443 68.0193 32.3697C67.7129 32.6859 67.5597 33.1462 67.5597 33.7507V38.019H65.6102V30.2914H67.5597V31.226C67.8104 30.9005 68.1307 30.6448 68.5206 30.4588C68.9198 30.2728 69.3561 30.1798 69.8296 30.1798C70.433 30.1798 70.9715 30.31 71.4449 30.5704C71.9184 30.8214 72.2851 31.1841 72.545 31.6584C72.7957 31.212 73.1578 30.854 73.6312 30.5843C74.114 30.3146 74.6339 30.1798 75.1909 30.1798Z" fill="#7868E6"/>
<path d="M87.3735 33.9878C87.3735 34.2668 87.355 34.5179 87.3178 34.741H81.678C81.7245 35.299 81.9194 35.736 82.2629 36.0522C82.6064 36.3684 83.0288 36.5265 83.5301 36.5265C84.2542 36.5265 84.7695 36.215 85.0758 35.5919H87.1786C86.9558 36.3358 86.5287 36.9496 85.8974 37.4331C85.2662 37.9074 84.491 38.1445 83.5719 38.1445C82.8292 38.1445 82.1608 37.9818 81.5666 37.6563C80.9818 37.3216 80.5222 36.8519 80.188 36.2475C79.8631 35.6431 79.7006 34.9456 79.7006 34.1552C79.7006 33.3555 79.8631 32.6534 80.188 32.0489C80.5129 31.4445 80.9678 30.9795 81.5527 30.6541C82.1376 30.3286 82.8106 30.1658 83.5719 30.1658C84.3053 30.1658 84.9598 30.3239 85.5354 30.6401C86.1202 30.9563 86.5705 31.4073 86.8861 31.9931C87.2111 32.5697 87.3735 33.2346 87.3735 33.9878ZM85.3543 33.4299C85.3451 32.9277 85.164 32.5278 84.8113 32.2303C84.4585 31.9234 84.0268 31.77 83.5162 31.77C83.0334 31.77 82.625 31.9187 82.2908 32.2163C81.9658 32.5046 81.7662 32.9091 81.692 33.4299H85.3543Z" fill="#7868E6"/>
<path d="M99.4912 30.2914L97.2353 38.019H95.1326L93.7261 32.6208L92.3197 38.019H90.203L87.9332 30.2914H89.9106L91.2753 36.1778L92.7513 30.2914H94.8123L96.2605 36.1638L97.6252 30.2914H99.4912Z" fill="#7868E6"/>
<path d="M103.972 38.1445C103.229 38.1445 102.561 37.9818 101.966 37.6563C101.372 37.3216 100.904 36.8519 100.56 36.2475C100.226 35.6431 100.059 34.9456 100.059 34.1552C100.059 33.3648 100.23 32.6673 100.574 32.0629C100.927 31.4584 101.405 30.9935 102.008 30.668C102.612 30.3332 103.285 30.1658 104.027 30.1658C104.77 30.1658 105.443 30.3332 106.047 30.668C106.65 30.9935 107.124 31.4584 107.467 32.0629C107.82 32.6673 107.996 33.3648 107.996 34.1552C107.996 34.9456 107.815 35.6431 107.453 36.2475C107.1 36.8519 106.618 37.3216 106.005 37.6563C105.401 37.9818 104.724 38.1445 103.972 38.1445ZM103.972 36.4428C104.325 36.4428 104.654 36.3591 104.96 36.1917C105.276 36.015 105.527 35.7546 105.712 35.4106C105.898 35.0665 105.991 34.648 105.991 34.1552C105.991 33.4206 105.796 32.858 105.406 32.4674C105.025 32.0675 104.557 31.8676 104 31.8676C103.443 31.8676 102.974 32.0675 102.593 32.4674C102.222 32.858 102.036 33.4206 102.036 34.1552C102.036 34.8898 102.217 35.4571 102.579 35.8569C102.951 36.2475 103.415 36.4428 103.972 36.4428Z" fill="#7868E6"/>
<path d="M111.376 31.491C111.626 31.0818 111.951 30.761 112.351 30.5285C112.759 30.296 113.223 30.1798 113.743 30.1798V32.2303H113.228C112.615 32.2303 112.151 32.3744 111.835 32.6627C111.529 32.9509 111.376 33.4531 111.376 34.1691V38.019H109.426V30.2914H111.376V31.491Z" fill="#7868E6"/>
<path d="M119.624 38.019L117.006 34.7271V38.019H115.056V27.6969H117.006V33.5693L119.596 30.2914H122.13L118.733 34.1691L122.158 38.019H119.624Z" fill="#7868E6"/>
<defs>
<linearGradient id="paint0_linear_1_11" x1="16.5791" y1="2.14453" x2="16.5791" y2="36.1445" gradientUnits="userSpaceOnUse">
<stop offset="0.286458" stop-color="#EEEEEE"/>
<stop offset="0.942708" stop-color="#F9F9F9"/>
</linearGradient>
</defs>
</svg>
